<svg xmlns="http://www.w3.org/2000/svg" viewBox="0 0 100 100" width="100" height="100">
  <defs>
    <linearGradient id="favDocGrad" x1="0" y1="0" x2="0" y2="1">
      <stop offset="0%" stop-color="#2563eb"/>
      <stop offset="100%" stop-color="#1d4ed8"/>
    </linearGradient>
  </defs>

  <!-- Document body -->
  <rect x="10" y="10" width="68" height="84" rx="7" ry="7" fill="url(#favDocGrad)"/>

  <!-- Fold corner -->
  <polygon points="66,10 78,10 78,22 66,22" fill="#93c5fd"/>

  <!-- Text lines -->
  <rect x="22" y="30" width="40" height="6" rx="3" fill="#bfdbfe" opacity="0.9"/>
  <rect x="22" y="42" width="32" height="4" rx="2" fill="#bfdbfe" opacity="0.6"/>
  <rect x="22" y="52" width="36" height="4" rx="2" fill="#bfdbfe" opacity="0.6"/>
  <rect x="22" y="62" width="28" height="4" rx="2" fill="#bfdbfe" opacity="0.6"/>
  <rect x="22" y="72" width="34" height="4" rx="2" fill="#bfdbfe" opacity="0.6"/>

  <!-- Checkmark -->
  <polyline points="32,54 38,60 48,50" fill="none" stroke="#fff" stroke-width="3.5" stroke-linecap="round" stroke-linejoin="round"/>

  <!-- Craft spark -->
  <polygon points="84,10 86,16 92,18 86,20 84,26 82,20 76,18 82,16" fill="#f59e0b"/>
</svg>
